# xmcd
#
# Track frame offsets:
#	150
#	13535
#	26595
#	40722
#	57631
#	69951
#	84747
#	102416
#	115554
#	130319
#	144640
#	156014
#	175173
#	185051
#	194482
#	204175
#	215027
#	224965
#	236053
#	247919
#	260380
#	271227
#	279952
#	288911
#	298689
#	309860
#	321503
#	334061
#	346614
#
# Disc length: 4770 seconds
#
# Revision: 0
# Processed by: cddbd v1.5.2PL0 Copyright (c) Steve Scherf et al.
# Submitted via: EZCDAudioConverter 1.1.0.1
#
DISCID=bb12a01d
DTITLE=Blandet 2013
DYEAR=1900
DGENRE=
TTITLE0=Sweethearts Of The Rodeo - Blue To The Bone C S (fin)
TTITLE1=Sweethearts Of The Rodeo - Chains Of Gold C S (fin)
TTITLE2=Sweethearts Of The Rodeo - Too Little Too Late C R (bra)
TTITLE3=Mollie O'Brien - Big Red Sun G L (fin)
TTITLE4=Mary Chapin Carpenter - I Put My Ring Back On G L (fin)
TTITLE5=Mary Chapin Carpenter - The Way I Feel G L (fin)
TTITLE6=Bonnie Raiitt - Down To You J B (fin)
TTITLE7=The Firebirds - I Want You R S (fin)
TTITLE8=The firebirds - Zing Went The Strings G L (fin)
TTITLE9=The firebirds - Pledge Of A Fool R S (fin)
TTITLE10=The firebirds - Little Orphan Girl  R S  (fin)
TTITLE11=The firebirds - The Morse Code Of Love R S (fin)
TTITLE12=The firebirds - Long Tall Girl G L (bra)
TTITLE13=The firebirds - Remembering G L (fin)
TTITLE14=The firebirds - When Will I Be Loved R S (fin)
TTITLE15=The firebirds - The Majestic G L (fin)
TTITLE16=Connie Francis - Stupid cupid R S (fin)
TTITLE17=Wanda Jackson - Heartbreak hotel G L (fin)
TTITLE18=Bill Haley - Shake, rattle and roll R S (fin)
TTITLE19=Jackie Wilson - Reet petite R S (fin)
TTITLE20=Bobby Rydell - Wild one R S (fin)
TTITLE21=Hank Ballard - Finger poppin' time R S (fin)
TTITLE22=Donnie and Andy Doll Band - Hey ba ba re bop R S (fin)
TTITLE23=The Drifters - There Goes My Baby R S (fin)
TTITLE24=The Drifters - Save The Last Dance For Me R S (fin)
TTITLE25=The Drifters - Under The Boardwalk G L (fin)
TTITLE26=The Good Fellas - The Wanderer R S (fin)
TTITLE27=Betsy-Dawn Williams - Why Doncha Call R A B (fin)
TTITLE28=Eddie Angel - Almost Grown R S (fin)
EXTD=
EXTT0=
EXTT1=
EXTT2=
EXTT3=
EXTT4=
EXTT5=
EXTT6=
EXTT7=
EXTT8=
EXTT9=
EXTT10=
EXTT11=
EXTT12=
EXTT13=
EXTT14=
EXTT15=
EXTT16=
EXTT17=
EXTT18=
EXTT19=
EXTT20=
EXTT21=
EXTT22=
EXTT23=
EXTT24=
EXTT25=
EXTT26=
EXTT27=
EXTT28=
PLAYORDER=
